<svg xmlns="http://www.w3.org/2000/svg" viewBox="0 0 67.77 75.27"><defs><style>.cls-1{fill:#1d1e1b;}</style></defs><g id="Calque_2" data-name="Calque 2"><g id="Fond"><g id="Design_logo" data-name="Design logo"><path class="cls-1" d="M48.86,1.69H29.42c.32-.12.66-.23,1-.34a28.87,28.87,0,0,1,17.45,0Z"/><path class="cls-1" d="M57.76,6.88H20.51l.4-.34a28.94,28.94,0,0,1,3.14-2.25L24.61,4H53.66l.56.34a28,28,0,0,1,3.14,2.25Z"/><path class="cls-1" d="M62.5,12.07H15.77l.24-.34c.58-.78,1.19-1.53,1.84-2.25.1-.12.2-.23.31-.34h42l.3.34a28.2,28.2,0,0,1,1.84,2.25Z"/><path class="cls-1" d="M65.43,17.26H12.84l.15-.34c.35-.77.72-1.52,1.14-2.26.06-.11.12-.22.19-.33H64l.2.33c.41.74.79,1.49,1.13,2.26Z"/><path class="cls-1" d="M67.11,22.45H11.16a3.38,3.38,0,0,1,.08-.34c.17-.77.38-1.52.62-2.26a3.38,3.38,0,0,0,.11-.34H66.3c0,.12.07.23.11.34.24.74.45,1.49.63,2.26C67.06,22.22,67.09,22.33,67.11,22.45Z"/><path class="cls-1" d="M39.08,55.84h9.13c-.36.12-.72.23-1.09.33a28.39,28.39,0,0,1-8,1.13H39c0-.37,0-.75.06-1.13Z"/><path class="cls-1" d="M38.42,50.65H57.5l-.42.34a29.09,29.09,0,0,1-3.23,2.25l-.58.34H39c0-.11,0-.23,0-.34A20.77,20.77,0,0,0,38.51,51Z"/><path class="cls-1" d="M36.17,45.46H62.34c-.08.11-.16.23-.25.34a28.59,28.59,0,0,1-1.87,2.25l-.32.34H37.66c0-.11-.09-.22-.14-.34a18.25,18.25,0,0,0-1.14-2.25Z"/><path class="cls-1" d="M31.5,40.27H65.33l-.15.34c-.35.77-.74,1.52-1.16,2.25l-.2.34H34.55c-.1-.11-.2-.22-.29-.34a20.64,20.64,0,0,0-2.33-2.25Z"/><path class="cls-1" d="M67.06,35.08c0,.11,0,.23-.08.34-.18.76-.4,1.52-.64,2.26l-.12.33H27.81c-.25-.11-.5-.23-.76-.33a19.53,19.53,0,0,0-15,0l-.09,0v0c-.25-.74-.47-1.5-.65-2.26,0-.11,0-.23-.08-.34Z"/><path class="cls-1" d="M67.76,29.89c0,.12,0,.23,0,.34,0,.76-.11,1.51-.21,2.26,0,.11,0,.22,0,.34H10.79c0-.12,0-.23,0-.34-.1-.75-.17-1.5-.21-2.26,0-.11,0-.22,0-.34Z"/><path class="cls-1" d="M67.77,27.64H10.5c0-.12,0-.23,0-.34,0-.76.1-1.51.19-2.26,0-.11,0-.22,0-.34H67.52c0,.12,0,.23,0,.34.1.75.16,1.5.2,2.26C67.76,27.41,67.77,27.52,67.77,27.64Z"/><path class="cls-1" d="M39,57.3A19.54,19.54,0,1,1,12,37.71s0,.09,0,.14l.06.16c.26.77.56,1.52.89,2.26l.15.34c.36.77.74,1.52,1.16,2.25l.2.34c.46.78,1,1.53,1.48,2.26l.25.34c.59.78,1.21,1.53,1.87,2.25l.32.34a28.63,28.63,0,0,0,2.41,2.26l.41.34a28.31,28.31,0,0,0,3.24,2.25l.58.34a28.07,28.07,0,0,0,5.06,2.26c.35.12.72.23,1.08.33A28.41,28.41,0,0,0,39,57.3Z"/><path class="cls-1" d="M48.86,1.69H29.42c.32-.12.66-.23,1-.34H47.86Z"/><path class="cls-1" d="M54.22,4.29H24.05L24.61,4H53.66Z"/><path class="cls-1" d="M57.76,6.88H20.51l.4-.34H57.36Z"/><path class="cls-1" d="M60.42,9.48H17.85c.1-.12.2-.23.31-.34h42Z"/><path class="cls-1" d="M62.5,12.07H15.77l.24-.34H62.26Z"/><path class="cls-1" d="M64.15,14.66h-50c.06-.11.12-.22.19-.33H64Z"/><path class="cls-1" d="M65.43,17.26H12.84l.15-.34H65.28Z"/><path class="cls-1" d="M66.41,19.85H11.86a3.38,3.38,0,0,0,.11-.34H66.3C66.34,19.63,66.37,19.74,66.41,19.85Z"/><path class="cls-1" d="M67.11,22.45H11.16a3.38,3.38,0,0,1,.08-.34H67C67.06,22.22,67.09,22.33,67.11,22.45Z"/><path class="cls-1" d="M67.56,25H10.71c0-.11,0-.22,0-.34H67.52C67.53,24.82,67.55,24.93,67.56,25Z"/><path class="cls-1" d="M67.77,27.64H10.5c0-.12,0-.23,0-.34H67.76C67.76,27.41,67.77,27.52,67.77,27.64Z"/><path class="cls-1" d="M67.76,29.89c0,.12,0,.23,0,.34H10.53c0-.11,0-.22,0-.34Z"/><path class="cls-1" d="M67.53,32.49c0,.11,0,.22,0,.34H10.79c0-.12,0-.23,0-.34Z"/><path class="cls-1" d="M67.06,35.08c0,.11,0,.23-.08.34H11.29c0-.11,0-.23-.08-.34Z"/><path class="cls-1" d="M11.94,37.68H12l-.09,0Z"/><path class="cls-1" d="M66.34,37.68l-.12.33H27.81c-.25-.11-.5-.23-.76-.33Z"/><path class="cls-1" d="M65.33,40.27l-.15.34H31.93l-.43-.34Z"/><path class="cls-1" d="M64,42.86l-.2.34H34.55c-.1-.11-.2-.22-.29-.34Z"/><path class="cls-1" d="M62.34,45.46c-.08.11-.16.23-.25.34H36.38l-.21-.34Z"/><path class="cls-1" d="M60.22,48.05l-.32.34H37.66c0-.11-.09-.22-.14-.34Z"/><path class="cls-1" d="M57.5,50.65l-.42.34H38.51l-.09-.34Z"/><path class="cls-1" d="M53.85,53.24l-.58.34H39c0-.11,0-.23,0-.34Z"/><path class="cls-1" d="M48.21,55.84c-.36.12-.72.23-1.09.33h-8v-.33Z"/></g></g></g></svg>